<?xml version="1.0" encoding="utf-8"?>
<!-- Generator: Adobe Illustrator 19.2.1, SVG Export Plug-In . SVG Version: 6.00 Build 0)  -->
<svg version="1.1" id="Layer_1" xmlns="http://www.w3.org/2000/svg" xmlns:xlink="http://www.w3.org/1999/xlink" x="0px" y="0px"
	 viewBox="0 0 173 43.9" style="enable-background:new 0 0 173 43.9;" xml:space="preserve">
<style type="text/css">
	.st0{fill:#333333;}
	.st1{fill:#FCD0B1;}
</style>
<g>
	<g>
		<path class="st0" d="M61,22.2c0-1.7-1.2-2.6-3-3.6L55,16.9c-2.5-1.3-3.8-2.7-3.8-5.2c0-3.1,2.7-5.6,6.2-5.6c2.5,0,3.8,1.2,4.5,1.2
			c0.5,0,0.7-0.3,0.9-0.9h0.5l0.3,5.7l-0.6,0c-0.3-2.8-2.5-5.1-5.1-5.1c-1.8,0-3.1,1.2-3.1,2.8c0,1.7,1.4,2.5,2.8,3.2l2.5,1.4
			c2.7,1.5,4.5,2.9,4.5,5.6c0,3.6-3.1,6.1-7,6.1c-2.7,0-4-1.4-4.8-1.4c-0.4,0-0.7,0.5-0.9,1.1h-0.5L51,19.3l0.7-0.1
			c0.4,3.6,2.8,6.1,5.7,6.1C59.4,25.3,61,24.3,61,22.2z"/>
		<path class="st0" d="M73.7,32h-8v-0.7c1.3,0,1.6-0.2,1.6-1.8V14.5c0-1.6-0.3-1.8-1.6-1.8V12h5.7v2c0.7-1,2.2-2.3,4.1-2.3
			c3.3,0,5.7,2.8,5.7,6.7c0,4.9-3.4,7.9-6.7,7.9c-1.3,0-2.4-0.4-3.1-1v4.3c0,1.6,0.4,1.8,2.2,1.8V32z M77,19.1
			c0-3.3-1.2-5.6-3.4-5.6c-0.9,0-1.6,0.5-2.2,1.3v9.8c0.5,0.4,1.3,0.7,1.9,0.7C75,25.2,77,23.6,77,19.1z"/>
		<path class="st0" d="M89.7,26.3c-3.9,0-7.1-2.9-7.1-7.1c0-4.3,3.4-7.5,6.9-7.5c3.7,0,5.6,3,5.6,5.7h-8.6v0.1c0,4,2.2,6.8,5.1,6.8
			c1.3,0,2.3-0.5,3.2-1.7l0.4,0.4C94,25.1,91.9,26.3,89.7,26.3z M86.6,16.5h5.2c-0.1-2.3-0.9-3.9-2.5-3.9
			C87.8,12.6,86.7,13.9,86.6,16.5z"/>
		<path class="st0" d="M108.1,12.9l-0.1,3.6h-0.7c-0.2-2.2-1.2-3.8-3.3-3.8c-2.1,0-3.7,2-3.7,4.9c0,3.9,2.1,6.6,4.7,6.6
			c1.3,0,2.2-0.5,3.2-1.7l0.5,0.4c-1.3,2.3-3.5,3.4-5.6,3.4c-3.7,0-6.7-2.8-6.7-7c0-4.4,3.6-7.6,7.5-7.6
			C105.5,11.7,107,12.1,108.1,12.9z"/>
		<path class="st0" d="M109.4,12.7V12h5.8v11.5c0,1.6,0.3,1.8,1.6,1.8V26h-7.4v-0.7c1.4,0,1.6-0.2,1.6-1.8v-9
			C111.1,12.9,110.8,12.7,109.4,12.7z M113.1,5.4c1.3,0,2.3,1,2.3,2.3c0,1.3-1,2.2-2.3,2.2c-1.3,0-2.4-1-2.4-2.2
			C110.7,6.4,111.8,5.4,113.1,5.4z"/>
		<path class="st0" d="M129.4,16.8v6.6c0,0.8,0.4,1.2,0.9,1.2c0.4,0,0.6-0.2,1-0.6l0.4,0.4c-0.6,0.9-1.7,1.8-3.3,1.8
			c-1.4,0-2.8-0.7-3.2-2.3c-0.8,1.2-2.2,2.3-4,2.3c-1.9,0-3.5-1.2-3.5-3.2c0-2.2,1.9-3.2,4.5-4.2l2.9-1.1v-1.6
			c0-1.9-0.4-3.3-2.4-3.3c-2.1,0-3.3,1.7-3.5,3.9h-0.7v-3.6c1.1-0.6,3.1-1.4,5.5-1.4C127.5,11.7,129.4,13.7,129.4,16.8z M123.5,19.3
			c-1.2,0.5-2.1,1.2-2.1,2.8c0,1.3,0.8,2.3,2,2.3c0.6,0,1.3-0.3,1.8-0.9v-4.8L123.5,19.3z"/>
		<path class="st0" d="M131.3,5.8V5.1h6.1v18.4c0,1.6,0.2,1.8,1.6,1.8V26h-7.3v-0.7c1.4,0,1.6-0.2,1.6-1.8v-16
			C133.2,6,132.9,5.8,131.3,5.8z"/>
		<path class="st0" d="M139.8,12.7V12h5.8v11.5c0,1.6,0.3,1.8,1.6,1.8V26h-7.4v-0.7c1.4,0,1.6-0.2,1.6-1.8v-9
			C141.5,12.9,141.2,12.7,139.8,12.7z M143.5,5.4c1.3,0,2.3,1,2.3,2.3c0,1.3-1,2.2-2.3,2.2c-1.3,0-2.4-1-2.4-2.2
			C141.1,6.4,142.2,5.4,143.5,5.4z"/>
		<path class="st0" d="M157.8,12.7l-0.1,3.4h-0.7c-0.1-2.2-1.1-3.6-3.2-3.6c-1.3,0-2.1,0.8-2.1,1.8c0,1,0.7,1.5,1.7,2l2.2,1.2
			c1.7,0.9,2.9,2,2.9,4c0,2.8-2.5,4.7-5.5,4.7c-1.9,0-3.8-0.6-4.7-1.3l0-3.8h0.7c0.2,2.8,1.8,4.2,4.1,4.2c1.4,0,2.4-0.7,2.4-2
			c0-1.1-0.8-1.7-2.1-2.3l-2.4-1.3c-1.5-0.8-2.5-2-2.5-3.8c0-2.6,2.4-4.3,5.2-4.3C155.2,11.7,156.8,12.1,157.8,12.7z"/>
		<path class="st0" d="M164.9,7.9h0.3v4.2c1,0,3.3,0,4.2-0.1l-0.2,1.1h-4v8.7c0,1.5,0.7,2.6,2,2.6c1,0,1.6-0.4,2.2-1.4l0.4,0.4
			c-1,1.7-2.7,2.9-4.7,2.9c-2.4,0-4.2-1.7-4.2-4.1l0.1-9.1h-1.5v-0.5C161.5,11.5,163.8,9.4,164.9,7.9z"/>
	</g>
	<g>
		<rect x="0.9" y="0.6" class="st1" width="42.8" height="42.8"/>
		<g>
			<path class="st0" d="M11.9,7.5v8h2.3c2.5,0,2.7-0.4,2.9-2.4h0.7v5.8h-0.7c-0.2-2-0.3-2.4-2.9-2.4h-2.3v6.9c0,1.4,0.4,1.7,3,1.7
				V26H5.8v-0.9c1.9,0,2.6-0.1,2.6-1.6V9c0-1.5-0.7-1.6-2.6-1.6V6.5h12.2c1.6,0,2.2-0.1,2.7-0.2v6h-0.8c-0.4-4.2-1.3-4.9-5-4.9H11.9
				z"/>
			<path class="st0" d="M37.3,6.5c1.6,0,2.2-0.1,2.7-0.2v6h-0.8c-0.4-4.2-1.3-4.9-5-4.9h-1v15.9c0,1.5,0.6,1.7,3,1.7V26h-9.6v-0.9
				c2.4,0,3-0.2,3-1.7V7.5h-1c-3.7,0-4.6,0.7-5,4.9h-0.8v-6c0.5,0.1,1.1,0.2,2.7,0.2H37.3z"/>
		</g>
	</g>
</g>
</svg>
